<?xml version="1.0" encoding="utf-8"?>
<!-- Generator: Adobe Illustrator 16.0.0, SVG Export Plug-In . SVG Version: 6.00 Build 0)  -->
<!DOCTYPE svg PUBLIC "-//W3C//DTD SVG 1.1//EN" "http://www.w3.org/Graphics/SVG/1.1/DTD/svg11.dtd">
<svg version="1.1" id="Layer_1" xmlns="http://www.w3.org/2000/svg" xmlns:xlink="http://www.w3.org/1999/xlink" x="0px" y="0px"
	 width="792px" height="612px" viewBox="0 0 792 612" enable-background="new 0 0 792 612" xml:space="preserve">
<path opacity="0.3" d="M321.394,184.667c0,0,26.227,52.31,70.611,47.2c0,0-7.926-46.434-59.822-62.249"/>
<path fill="#FFFFFF" stroke="#000000" stroke-width="6" stroke-linecap="round" stroke-miterlimit="10" d="M323.394,165.618
	c0,0,26.227,52.31,70.611,47.2c0,0-7.926-46.434-59.822-62.249"/>
<path opacity="0.33" d="M192.691,121.903c-2.102-25.895,7.875-49.358,25.023-68.439c10.334-11.498,23.807-19.488,38.812-23.183
	c29.389-7.236,64.326,1.249,81.35,27.744c14.709,22.896,16.848,48.893,10.951,74.975c-20.607,91.146-181.386,180.291-272.533,2.756
	c0,0-41.213,10.303-65.783-13.474c0,0,30.119-34.081,64.992-23.778c0,0,32.494-53.102,72.916-55.48c0,0,11.914,41.588-37.25,68.161
	c0,0,11.338,13.618,40.664,14.947c0,0,20.311-27.884,41.709-27.884"/>
<path fill="#FFFFFF" stroke="#000000" stroke-width="6" stroke-linecap="round" stroke-miterlimit="10" d="M192.691,104.674
	c-2.102-25.896,7.875-49.358,25.023-68.439c10.334-11.498,23.807-19.488,38.812-23.183c29.389-7.236,64.326,1.249,81.35,27.744
	c14.709,22.896,16.848,48.893,10.951,74.975c-20.607,91.146-181.386,180.291-272.533,2.756c0,0-41.213,10.303-65.783-13.474
	c0,0,30.119-34.081,64.992-23.777c0,0,32.494-53.102,72.916-55.48c0,0,11.914,41.588-37.25,68.161c0,0,11.338,13.618,40.664,14.947
	c0,0,20.311-27.884,41.709-27.884"/>
<circle cx="237.697" cy="80.849" r="6.755"/>
<circle cx="320.879" cy="82.643" r="6.755"/>
<path fill="none" stroke="#000000" stroke-width="6" stroke-linecap="round" stroke-miterlimit="10" d="M240.862,105.75
	c0,0,20.158,8.417,38.748-8.346c0,0,19.535,16.269,37.68,10.14"/>
<path fill="none" stroke="#000000" stroke-width="6" stroke-linecap="round" stroke-miterlimit="10" d="M265.036,123.354
	c0,0,11.426,11.27,27.76,0.51"/>
<path fill="#FFFFFF" stroke="#000000" stroke-width="6" stroke-linecap="round" stroke-miterlimit="10" d="M175.195,165.618
	c0,0-59.383,36.543-48.287,94.4c0,0,56.273-16.644,64.99-84.013"/>
<line fill="none" stroke="#000000" stroke-width="6" stroke-linecap="round" stroke-miterlimit="10" x1="145.591" y1="122.885" x2="151.833" y2="108.903"/>
</svg>
