<svg id="Layer_1" data-name="Layer 1" xmlns="http://www.w3.org/2000/svg" xmlns:xlink="http://www.w3.org/1999/xlink" viewBox="0 0 842.47 782"><defs><clipPath id="clip-path"><rect width="782" height="782" style="fill:none"/></clipPath><clipPath id="clip-path-6"><rect x="493" y="434" width="72" height="63" style="fill:none"/></clipPath><clipPath id="clip-path-7"><rect x="493.75" y="434.17" width="70.61" height="62.6" style="fill:none"/></clipPath><clipPath id="clip-path-23"><rect x="182" y="305" width="343" height="211" style="fill:none"/></clipPath><clipPath id="clip-path-24"><rect x="182.87" y="305.36" width="341.37" height="210.12" style="fill:none"/></clipPath></defs><title>porp_font</title><g style="clip-path:url(#clip-path)"><g style="isolation:isolate"><g style="clip-path:url(#clip-path)"><g style="clip-path:url(#clip-path)"><rect width="782" height="782" style="fill:#231f20"/></g><g style="clip-path:url(#clip-path)"><g style="clip-path:url(#clip-path)"><g style="opacity:0.30000001192092896;isolation:isolate"><g style="clip-path:url(#clip-path-6)"><g style="clip-path:url(#clip-path-7)"><path d="M493.75,449.22s26.23,52.31,70.61,47.2c0,0-7.93-46.43-59.82-62.25" style="fill:#231f20"/></g></g></g><path d="M495.75,430.17s30.27,66,74.65,60.91c0,0-12-60.15-63.87-76" style="fill:#fff"/><path d="M495.75,430.17s30.27,66,74.65,60.91c0,0-12-60.15-63.87-76" style="fill:none;stroke:#231f20;stroke-linecap:round;stroke-miterlimit:10;stroke-width:6px"/></g></g><g style="clip-path:url(#clip-path)"><text transform="translate(38 68.21)" style="font-size:48.29999923706055px;fill:#fff;font-family:GothamBlack, Gotham Black"><tspan style="letter-spacing:0.015002264729727115em">Y</tspan><tspan x="35.65" y="0" style="letter-spacing:0.07899440471569251em">O</tspan><tspan x="79.6" y="0">U</tspan></text></g><g style="clip-path:url(#clip-path)"><g style="clip-path:url(#clip-path)"><text transform="translate(158.12 68.21)" style="font-size:69px;fill:#fff;font-family:GothamBlack, Gotham Black"> </text></g></g><g style="clip-path:url(#clip-path)"><text transform="translate(177.23 68.21)" style="font-size:48.29999923706055px;fill:#fff;font-family:GothamBlack, Gotham Black;letter-spacing:0.07999522965386163em">H<tspan x="40.62" y="0" style="letter-spacing:-0.01999628007776296em">A</tspan><tspan x="78.05" y="0" style="letter-spacing:0.0790045140585023em">V</tspan><tspan x="118.58" y="0" style="letter-spacing:-0.00001010934280978916em">E</tspan></text></g><g style="clip-path:url(#clip-path)"><g style="clip-path:url(#clip-path)"><text transform="translate(331.99 68.21)" style="font-size:69px;fill:#fff;font-family:GothamBlack, Gotham Black"> </text></g></g><g style="clip-path:url(#clip-path)"><text transform="translate(351.1 68.21)" style="font-size:48.29999923706055px;fill:#fff;font-family:GothamBlack, Gotham Black;letter-spacing:0.07999522965386163em">N<tspan x="41.78" y="0" style="letter-spacing:-0.00001010934280978916em">O</tspan></text></g><g style="clip-path:url(#clip-path)"><g style="clip-path:url(#clip-path)"><text transform="translate(436.88 68.21)" style="font-size:69px;fill:#fff;font-family:GothamBlack, Gotham Black"> </text></g></g><g style="clip-path:url(#clip-path)"><text transform="translate(455.99 68.21)" style="font-size:48.29999923706055px;fill:#fff;font-family:GothamBlack, Gotham Black"><tspan style="letter-spacing:0.08000533899667142em">PORP</tspan><tspan x="155.33" y="0" style="letter-spacing:0.07901462340131209em">OIS</tspan><tspan x="254.2" y="0">E</tspan></text><text transform="translate(38 135.98)" style="font-size:48.29999923706055px;fill:#fff;font-family:GothamBlack, Gotham Black"><tspan style="letter-spacing:0.015002264729727115em">Y</tspan><tspan x="35.65" y="0" style="letter-spacing:0.07999522965386163em">O</tspan><tspan x="79.65" y="0">U</tspan></text><text transform="translate(158.12 135.97)" style="font-size:69px;fill:#fff;font-family:GothamBlack, Gotham Black"> </text><text transform="translate(177.23 135.97)" style="font-size:48.29999923706055px;fill:#fff;font-family:GothamBlack, Gotham Black;letter-spacing:0.07999522965386163em">H<tspan x="40.62" y="0" style="letter-spacing:-0.01999628007776296em">A</tspan><tspan x="78.05" y="0" style="letter-spacing:0.0790045140585023em">V</tspan><tspan x="118.58" y="0" style="letter-spacing:-0.00001010934280978916em">E</tspan></text><text transform="translate(331.99 135.97)" style="font-size:69px;fill:#fff;font-family:GothamBlack, Gotham Black"> </text><text transform="translate(351.1 135.97)" style="font-size:48.29999923706055px;fill:#fff;font-family:GothamBlack, Gotham Black;letter-spacing:0.07999522965386163em">N<tspan x="41.78" y="0" style="letter-spacing:-0.00001010934280978916em">O</tspan></text><text transform="translate(436.88 135.97)" style="font-size:69px;fill:#fff;font-family:GothamBlack, Gotham Black"> </text><text transform="translate(455.99 135.97)" style="font-size:48.29999923706055px;fill:#fff;font-family:GothamBlack, Gotham Black"><tspan style="letter-spacing:0.08000533899667142em">PORP</tspan><tspan x="155.33" y="0" style="letter-spacing:0.07901462340131209em">OIS</tspan><tspan x="254.2" y="0">E</tspan></text><text transform="translate(38 203.74)" style="font-size:48.29999923706055px;fill:#fff;font-family:GothamBlack, Gotham Black"><tspan style="letter-spacing:0.015002264729727115em">Y</tspan><tspan x="35.65" y="0" style="letter-spacing:0.07999522965386163em">O</tspan><tspan x="79.65" y="0">U</tspan></text><text transform="translate(158.12 203.73)" style="font-size:69px;fill:#fff;font-family:GothamBlack, Gotham Black"> </text><text transform="translate(177.23 203.73)" style="font-size:48.29999923706055px;fill:#fff;font-family:GothamBlack, Gotham Black;letter-spacing:0.07999522965386163em">H<tspan x="40.62" y="0" style="letter-spacing:-0.01999628007776296em">A</tspan><tspan x="78.05" y="0" style="letter-spacing:0.0790045140585023em">V</tspan><tspan x="118.58" y="0" style="letter-spacing:-0.00001010934280978916em">E</tspan></text><text transform="translate(331.99 203.73)" style="font-size:69px;fill:#fff;font-family:GothamBlack, Gotham Black"> </text><text transform="translate(351.1 203.73)" style="font-size:48.29999923706055px;fill:#fff;font-family:GothamBlack, Gotham Black;letter-spacing:0.07999522965386163em">N<tspan x="41.78" y="0" style="letter-spacing:-0.00001010934280978916em">O</tspan></text><text transform="translate(436.88 203.73)" style="font-size:69px;fill:#fff;font-family:GothamBlack, Gotham Black"> </text><text transform="translate(455.99 203.73)" style="font-size:48.29999923706055px;fill:#fff;font-family:GothamBlack, Gotham Black"><tspan style="letter-spacing:0.08000533899667142em">PORP</tspan><tspan x="155.33" y="0" style="letter-spacing:0.07901462340131209em">OIS</tspan><tspan x="254.2" y="0">E</tspan></text><text transform="translate(38 271.49)" style="font-size:48.29999923706055px;fill:#fff;font-family:GothamBlack, Gotham Black"><tspan style="letter-spacing:0.015002264729727115em">Y</tspan><tspan x="35.65" y="0" style="letter-spacing:0.07999522965386163em">O</tspan><tspan x="79.65" y="0">U</tspan></text><text transform="translate(158.12 271.49)" style="font-size:69px;fill:#fff;font-family:GothamBlack, Gotham Black"> </text><text transform="translate(177.23 271.49)" style="font-size:48.29999923706055px;fill:#fff;font-family:GothamBlack, Gotham Black;letter-spacing:0.07999522965386163em">H<tspan x="40.62" y="0" style="letter-spacing:-0.01999628007776296em">A</tspan><tspan x="78.05" y="0" style="letter-spacing:0.0790045140585023em">V</tspan><tspan x="118.58" y="0" style="letter-spacing:-0.00001010934280978916em">E</tspan></text><text transform="translate(331.99 271.49)" style="font-size:69px;fill:#fff;font-family:GothamBlack, Gotham Black"> </text><text transform="translate(351.1 271.49)" style="font-size:48.29999923706055px;fill:#fff;font-family:GothamBlack, Gotham Black;letter-spacing:0.07999522965386163em">N<tspan x="41.78" y="0" style="letter-spacing:-0.00001010934280978916em">O</tspan></text><text transform="translate(436.88 271.49)" style="font-size:69px;fill:#fff;font-family:GothamBlack, Gotham Black"> </text><text transform="translate(455.99 271.49)" style="font-size:48.29999923706055px;fill:#fff;font-family:GothamBlack, Gotham Black"><tspan style="letter-spacing:0.08000533899667142em">PORP</tspan><tspan x="155.33" y="0" style="letter-spacing:0.07901462340131209em">OIS</tspan><tspan x="254.2" y="0">E</tspan></text><text transform="translate(38 339.25)" style="font-size:48.29999923706055px;fill:#fff;font-family:GothamBlack, Gotham Black"><tspan style="letter-spacing:0.015002264729727115em">Y</tspan><tspan x="35.65" y="0" style="letter-spacing:0.07999522965386163em">O</tspan><tspan x="79.65" y="0">U</tspan></text><text transform="translate(158.12 339.25)" style="font-size:69px;fill:#fff;font-family:GothamBlack, Gotham Black"> </text><text transform="translate(177.23 339.25)" style="font-size:48.29999923706055px;fill:#fff;font-family:GothamBlack, Gotham Black;letter-spacing:0.07999522965386163em">H<tspan x="40.62" y="0" style="letter-spacing:-0.01999628007776296em">A</tspan><tspan x="78.05" y="0" style="letter-spacing:0.0790045140585023em">V</tspan><tspan x="118.58" y="0" style="letter-spacing:-0.00001010934280978916em">E</tspan></text><text transform="translate(331.99 339.25)" style="font-size:69px;fill:#fff;font-family:GothamBlack, Gotham Black"> </text><text transform="translate(351.1 339.25)" style="font-size:48.29999923706055px;fill:#fff;font-family:GothamBlack, Gotham Black;letter-spacing:0.07999522965386163em">N<tspan x="41.78" y="0" style="letter-spacing:-0.00001010934280978916em">O</tspan></text><text transform="translate(436.88 339.25)" style="font-size:69px;fill:#fff;font-family:GothamBlack, Gotham Black"> </text><text transform="translate(455.99 339.25)" style="font-size:48.29999923706055px;fill:#fff;font-family:GothamBlack, Gotham Black"><tspan style="letter-spacing:0.08000533899667142em">PORP</tspan><tspan x="155.33" y="0" style="letter-spacing:0.07901462340131209em">OIS</tspan><tspan x="254.2" y="0">E</tspan></text><text transform="translate(38 407.01)" style="font-size:48.29999923706055px;fill:#fff;font-family:GothamBlack, Gotham Black"><tspan style="letter-spacing:0.015002264729727115em">Y</tspan><tspan x="35.65" y="0" style="letter-spacing:0.07999522965386163em">O</tspan><tspan x="79.65" y="0">U</tspan></text><text transform="translate(158.12 407)" style="font-size:69px;fill:#fff;font-family:GothamBlack, Gotham Black"> </text><text transform="translate(177.23 407)" style="font-size:48.29999923706055px;fill:#fff;font-family:GothamBlack, Gotham Black;letter-spacing:0.07999522965386163em">H<tspan x="40.62" y="0" style="letter-spacing:-0.01999628007776296em">A</tspan><tspan x="78.05" y="0" style="letter-spacing:0.0790045140585023em">V</tspan><tspan x="118.58" y="0" style="letter-spacing:-0.00001010934280978916em">E</tspan></text><text transform="translate(331.99 407)" style="font-size:69px;fill:#fff;font-family:GothamBlack, Gotham Black"> </text><text transform="translate(351.1 407)" style="font-size:48.29999923706055px;fill:#fff;font-family:GothamBlack, Gotham Black;letter-spacing:0.07999522965386163em">N<tspan x="41.78" y="0" style="letter-spacing:-0.00001010934280978916em">O</tspan></text><text transform="translate(436.88 407)" style="font-size:69px;fill:#fff;font-family:GothamBlack, Gotham Black"> </text><text transform="translate(455.99 407)" style="font-size:48.29999923706055px;fill:#fff;font-family:GothamBlack, Gotham Black"><tspan style="letter-spacing:0.08000533899667142em">PORP</tspan><tspan x="155.33" y="0" style="letter-spacing:0.07901462340131209em">OIS</tspan><tspan x="254.2" y="0">E</tspan></text></g><g style="clip-path:url(#clip-path)"><g style="clip-path:url(#clip-path)"><polygon points="48.75 476.76 48.75 462.67 34.35 438.96 49.74 438.96 55.54 449.21 61.37 438.96 76.58 438.96 62.17 462.53 62.17 476.76 48.75 476.76" style="fill:#fff"/><path d="M73,441,60.17,462v12.8H50.75V462.11L37.9,441H48.58l7,12.32,7-12.32Zm7.14-4H60.21l-1.15,2-3.51,6.18L52.06,439l-1.15-2H30.79L34.48,443l12.27,20.2v15.53H64.17V463.09l12.26-20Z" style="fill:#231f20"/><path d="M93.64,477.44c-11.3,0-20.16-8.56-20.16-19.48,0-11.08,8.9-19.68,20.26-19.68s20.16,8.56,20.16,19.48c0,11.08-8.9,19.68-20.26,19.68m0-26.71c-4.25,0-6.55,3.62-6.55,7S89.42,465,93.74,465s6.6-3.54,6.6-7-2.35-7.22-6.69-7.22" style="fill:#fff"/><path d="M93.74,440.28c10.43,0,18.16,7.77,18.16,17.48v.1c0,9.71-7.82,17.58-18.26,17.58S75.48,467.66,75.48,458v-.1c0-9.71,7.82-17.58,18.25-17.58m0,26.71c5.17,0,8.6-4.15,8.6-9v-.1c0-4.88-3.53-9.13-8.69-9.13s-8.55,4.15-8.55,9v.1c0,4.88,3.53,9.13,8.64,9.13m0-30.71c-12.48,0-22.25,9.48-22.25,21.58v.1c0,12,9.73,21.48,22.16,21.48s22.26-9.48,22.26-21.58v-.1c0-12-9.73-21.48-22.16-21.48m0,26.71c-3,0-4.64-2.64-4.64-5.13v-.1c0-2.5,1.56-5,4.55-5s4.69,2.64,4.69,5.13v.1c0,2.42-1.44,5-4.6,5" style="fill:#231f20"/><path d="M135.85,477.39c-11.22,0-17.65-6.36-17.65-17.45V439h13.51v20.79c0,5.19,3.18,5.19,4.23,5.19,1.82,0,4.23-.51,4.23-5V439h13.51v20.74c0,11.41-6.34,17.7-17.84,17.7" style="fill:#fff"/><path d="M151.69,441v18.74c0,10.91-6.23,15.7-15.84,15.7s-15.65-4.88-15.65-15.46V441h9.51v18.79c0,4.88,2.46,7.2,6.23,7.2s6.23-2.22,6.23-7V441h9.51m4-4H138.18v23c0,3-1.08,3-2.23,3s-2.23,0-2.23-3.2V437H116.21v23c0,12.18,7.35,19.46,19.65,19.46,12.61,0,19.84-7.18,19.84-19.7V437Z" style="fill:#231f20"/><polygon points="199.62 476.76 199.62 463.92 191.6 463.92 191.6 476.76 178.23 476.76 178.23 438.96 191.6 438.96 191.6 451.61 199.62 451.61 199.62 438.96 212.99 438.96 212.99 476.76 199.62 476.76" style="fill:#fff"/><path d="M211,441v33.81h-9.37V461.92h-12v12.85h-9.37V441h9.37v12.65h12V441Zm4-4H197.62v12.65h-4V437H176.23v41.81H193.6V465.92h4v12.85H215V437Z" style="fill:#231f20"/><path d="M244.57,476.76l-2.46-6H231.76l-2.42,6H215.13l16.08-38h11.68l16.08,38Zm-6.76-17.33-.85-2.16-.86,2.16Z" style="fill:#fff"/><path d="M241.56,440.71l14.39,34h-10l-2.46-6h-13l-2.42,6h-9.85l14.39-34Zm-8.4,20.72h7.58L237,451.82l-3.82,9.61m11.05-24.72H229.88l-1,2.44-14.39,34-2.35,5.56H230.7l1-2.51,1.41-3.52h7.64l1.45,3.55,1,2.49H262l-2.35-5.56-14.39-34Z" style="fill:#231f20"/><polygon points="267.94 477 252.61 438.96 267.46 438.96 273.73 456.43 280.01 438.96 294.66 438.96 279.33 477 267.94 477" style="fill:#fff"/><path d="M291.7,441,278,475h-8.69l-13.71-34h10.48l7.68,21.39L281.41,441Zm5.92-4h-19l-1,2.65-3.91,10.9-3.91-10.9-1-2.65H249.65l2.21,5.49,13.71,34,1,2.51h14.1l1-2.5,13.72-34Z" style="fill:#231f20"/><polygon points="296.85 476.76 296.85 438.96 328.04 438.96 328.04 450.92 310.13 450.92 310.13 452.04 326.35 452.04 326.35 463.43 310.13 463.43 310.13 464.79 328.28 464.79 328.28 476.76 296.85 476.76" style="fill:#fff"/><path d="M326,441v8H308.13V454h16.23v7.39H308.13v5.36h18.16v8H298.85V441Zm4-4H294.85v41.81h35.43v-16h-1.93v-9.87H330V437Z" style="fill:#231f20"/><polygon points="376.78 476.76 365.32 462.04 365.32 476.76 352.05 476.76 352.05 438.96 363.76 438.96 374.69 453 374.69 438.96 387.97 438.96 387.97 476.76 376.78 476.76" style="fill:#fff"/><path d="M386,441v33.81h-8.21l-14.44-18.54v18.54H354V441h8.74l13.91,17.87V441Zm4-4H372.7v10.22l-6.75-8.68-1.2-1.54H350v41.81h17.27v-10.9l7.29,9.36,1.2,1.54H390V437Z" style="fill:#231f20"/><path d="M412.82,477.44c-11.3,0-20.16-8.56-20.16-19.48,0-11.08,8.9-19.68,20.26-19.68s20.16,8.56,20.16,19.48c0,11.08-8.9,19.68-20.25,19.68m0-26.71c-4.25,0-6.55,3.62-6.55,7s2.33,7.22,6.64,7.22,6.6-3.54,6.6-7-2.34-7.22-6.69-7.22" style="fill:#fff"/><path d="M412.92,440.28c10.43,0,18.16,7.77,18.16,17.48v.1c0,9.71-7.82,17.58-18.25,17.58s-18.16-7.77-18.16-17.48v-.1c0-9.71,7.82-17.58,18.26-17.58m0,26.71c5.17,0,8.6-4.15,8.6-9v-.1c0-4.88-3.53-9.13-8.69-9.13s-8.55,4.15-8.55,9v.1c0,4.88,3.53,9.13,8.64,9.13m0-30.71c-12.48,0-22.26,9.48-22.26,21.58v.1c0,12,9.73,21.48,22.16,21.48s22.25-9.48,22.25-21.58v-.1c0-12-9.73-21.48-22.16-21.48m0,26.71c-3,0-4.64-2.64-4.64-5.13v-.1c0-2.5,1.56-5,4.55-5s4.69,2.64,4.69,5.13v.1c0,2.42-1.44,5-4.6,5" style="fill:#231f20"/><path d="M456.94,476.76V439h16.49c9.75,0,16.05,5.45,16.05,13.88,0,8.71-6.49,14.27-16.54,14.27h-2.64v9.66Zm15.81-21c1.26,0,3.36-.31,3.36-2.39,0-.83,0-2.54-3.41-2.54h-2.39v4.93Z" style="fill:#fff"/><path d="M473.43,441c8.55,0,14.05,4.39,14.05,11.88v.1c0,8-6.13,12.17-14.54,12.17h-4.64v9.66h-9.37V441h14.49m-5.12,16.81h4.44c3.33,0,5.36-1.74,5.36-4.39v-.1c0-2.9-2-4.44-5.41-4.44h-4.39v8.93M473.43,437H454.94v41.81h17.37V469.1h.64c11.26,0,18.54-6.35,18.54-16.17v-.1c0-9.65-7.09-15.88-18.05-15.88m-1.12,15.87h.39a3.4,3.4,0,0,1,1.39.21,1.47,1.47,0,0,1,0,.23v.1a.75.75,0,0,1,0,.14,2.63,2.63,0,0,1-1.35.26h-.44Z" style="fill:#231f20"/><path d="M512.31,477.44c-11.3,0-20.16-8.56-20.16-19.48,0-11.08,8.9-19.68,20.26-19.68s20.16,8.56,20.16,19.48c0,11.08-8.9,19.68-20.25,19.68m0-26.71c-4.25,0-6.55,3.62-6.55,7s2.33,7.22,6.64,7.22,6.6-3.54,6.6-7-2.34-7.22-6.69-7.22" style="fill:#fff"/><path d="M512.4,440.28c10.43,0,18.16,7.77,18.16,17.48v.1c0,9.71-7.82,17.58-18.25,17.58s-18.16-7.77-18.16-17.48v-.1c0-9.71,7.82-17.58,18.26-17.58m0,26.71c5.17,0,8.6-4.15,8.6-9v-.1c0-4.88-3.53-9.13-8.69-9.13s-8.55,4.15-8.55,9v.1c0,4.88,3.53,9.13,8.64,9.13m0-30.71c-12.48,0-22.26,9.48-22.26,21.58v.1c0,12,9.73,21.48,22.16,21.48s22.25-9.48,22.25-21.58v-.1c0-12-9.73-21.48-22.16-21.48m0,26.71c-3,0-4.64-2.64-4.64-5.13v-.1c0-2.5,1.56-5,4.55-5s4.69,2.64,4.69,5.13v.1c0,2.42-1.44,5-4.6,5" style="fill:#231f20"/><path d="M558.52,476.76l-6.81-10.24h-1v10.24H537.31V439h18c5.48,0,9.66,1.44,12.44,4.27a12.44,12.44,0,0,1,3.57,9.27,12.57,12.57,0,0,1-6,11.21l8.93,13Zm-3.66-21.58c2,0,3-.68,3-2,0-.7,0-2.1-3.07-2.1h-4.14v4.11Z" style="fill:#fff"/><path d="M555.29,441c5.17,0,8.74,1.35,11,3.67a10.48,10.48,0,0,1,3,7.87v.1a10.69,10.69,0,0,1-7,10.38l8.06,11.78H559.59l-6.81-10.24h-4.11v10.24h-9.37V441h16m-6.62,16.23h6.18c3.19,0,5-1.55,5-4v-.1c0-2.66-1.93-4-5.07-4h-6.14v8.11M555.29,437h-20v41.8h17.37v-7.17l3.58,5.39,1.19,1.79H578l-4.28-6.26L568,464.19a14.61,14.61,0,0,0,5.28-11.59v-.1a14.39,14.39,0,0,0-4.17-10.7c-3.16-3.21-7.82-4.84-13.84-4.84m-2.62,16.11h2.14a4.94,4.94,0,0,1,.79.06,4.34,4.34,0,0,1-.74.06h-2.18Z" style="fill:#231f20"/><path d="M575.9,476.76V439h16.49c9.75,0,16.05,5.45,16.05,13.88,0,8.71-6.49,14.27-16.54,14.27h-2.64v9.66Zm15.81-21c1.26,0,3.36-.31,3.36-2.39,0-.83,0-2.54-3.41-2.54h-2.39v4.93Z" style="fill:#fff"/><path d="M592.39,441c8.55,0,14.05,4.39,14.05,11.88v.1c0,8-6.14,12.17-14.54,12.17h-4.64v9.66H577.9V441h14.49m-5.12,16.81h4.44c3.33,0,5.36-1.74,5.36-4.39v-.1c0-2.9-2-4.44-5.41-4.44h-4.4v8.93M592.39,437H573.9v41.81h17.37V469.1h.64c11.26,0,18.54-6.35,18.54-16.17v-.1c0-9.65-7.09-15.88-18.05-15.88m-1.12,15.87h.4a3.4,3.4,0,0,1,1.39.21,1.45,1.45,0,0,1,0,.23v.1a.75.75,0,0,1,0,.13,2.63,2.63,0,0,1-1.35.26h-.44Z" style="fill:#231f20"/><path d="M631.27,477.44c-11.3,0-20.16-8.56-20.16-19.48,0-11.08,8.9-19.68,20.26-19.68s20.16,8.56,20.16,19.48c0,11.08-8.9,19.68-20.26,19.68m0-26.71c-4.25,0-6.55,3.62-6.55,7S627,465,631.37,465s6.59-3.54,6.59-7-2.34-7.22-6.69-7.22" style="fill:#fff"/><path d="M631.37,440.28c10.43,0,18.16,7.77,18.16,17.48v.1c0,9.71-7.82,17.58-18.26,17.58s-18.16-7.77-18.16-17.48v-.1c0-9.71,7.82-17.58,18.26-17.58m0,26.71c5.17,0,8.6-4.15,8.6-9v-.1c0-4.88-3.53-9.13-8.69-9.13s-8.55,4.15-8.55,9v.1c0,4.88,3.53,9.13,8.65,9.13m0-30.71c-12.48,0-22.26,9.48-22.26,21.58v.1c0,12,9.73,21.48,22.16,21.48s22.26-9.48,22.26-21.58v-.1c0-12-9.73-21.48-22.16-21.48m0,26.71c-3,0-4.65-2.64-4.65-5.13v-.1c0-2.5,1.56-5,4.55-5s4.69,2.64,4.69,5.13v.1c0,2.42-1.44,5-4.6,5" style="fill:#231f20"/><rect x="656.46" y="438.96" width="13.42" height="37.81" style="fill:#fff"/><path d="M667.88,474.76h-9.42V441h9.42Zm4-37.81H654.46v41.81h17.42V437Z" style="fill:#231f20"/><path d="M691.21,477.34A25.57,25.57,0,0,1,674,471.23l-1.44-1.29,7.69-9.19a10.16,10.16,0,0,1-5.33-9.46c0-7.76,6.06-12.91,15.09-12.91,6.07,0,11,1.61,15.16,4.93l1.47,1.18L699.93,454c4,1.87,6.95,4.88,6.95,10.21,0,8-6.15,13.11-15.67,13.11m-9.38-15.4a15.38,15.38,0,0,0,9.72,3.62,3.55,3.55,0,0,0,1.87-.35c-.26-.21-1.16-.66-4.15-1.36a32.49,32.49,0,0,1-8.81-3Zm6.6-11.53c.29.22,1.24.65,4.28,1.34a38.85,38.85,0,0,1,5.88,1.69l-.47-.33a14.92,14.92,0,0,0-8.31-3,2.74,2.74,0,0,0-1.38.26Z" style="fill:#fff"/><path d="M690,440.38c5.75,0,10.24,1.54,13.91,4.49l-4.68,6.62a17,17,0,0,0-9.47-3.33c-2.27,0-3.38,1-3.38,2.17v.1c0,1.55,1.16,2.22,5.84,3.28,7.78,1.69,12.6,4.2,12.6,10.53v.1c0,6.91-5.46,11-13.67,11a23.62,23.62,0,0,1-15.84-5.6l5.22-6.23a17.41,17.41,0,0,0,11,4.06c2.51,0,3.86-.87,3.86-2.32v-.1c0-1.4-1.11-2.17-5.7-3.24-7.2-1.64-12.75-3.67-12.75-10.62v-.1c0-6.28,5-10.82,13.09-10.82m0-4c-10.06,0-17.09,6.09-17.09,14.82v.1a12.07,12.07,0,0,0,4.41,9.83l-5.07,6.05-2.48,3,2.88,2.58a27.57,27.57,0,0,0,18.51,6.62c10.57,0,17.67-6,17.67-15v-.1a12.24,12.24,0,0,0-6-10.9l4.36-6.16,2.18-3.07-2.94-2.36c-4.5-3.61-9.87-5.37-16.41-5.37" style="fill:#231f20"/><polygon points="711.28 476.76 711.28 438.96 742.47 438.96 742.47 450.92 724.55 450.92 724.55 452.04 740.78 452.04 740.78 463.43 724.55 463.43 724.55 464.79 742.71 464.79 742.71 476.76 711.28 476.76" style="fill:#fff"/><path d="M740.47,441v8H722.55V454h16.23v7.39H722.55v5.36h18.16v8H713.28V441Zm4-4H709.28v41.81h35.43v-16h-1.93v-9.87h1.69V437Z" style="fill:#231f20"/></g></g><g style="clip-path:url(#clip-path)"><text transform="translate(38 542.52)" style="font-size:48.29999923706055px;fill:#fff;font-family:GothamBlack, Gotham Black"><tspan style="letter-spacing:0.015002264729727115em">Y</tspan><tspan x="35.65" y="0" style="letter-spacing:0.07899440471569251em">O</tspan><tspan x="79.6" y="0">U</tspan></text><text transform="translate(158.12 542.52)" style="font-size:69px;fill:#fff;font-family:GothamBlack, Gotham Black"> </text><text transform="translate(177.23 542.52)" style="font-size:48.29999923706055px;fill:#fff;font-family:GothamBlack, Gotham Black;letter-spacing:0.07999522965386163em">H<tspan x="40.62" y="0" style="letter-spacing:-0.01999628007776296em">A</tspan><tspan x="78.05" y="0" style="letter-spacing:0.0790045140585023em">V</tspan><tspan x="118.58" y="0" style="letter-spacing:-0.00001010934280978916em">E</tspan></text><text transform="translate(331.99 542.52)" style="font-size:69px;fill:#fff;font-family:GothamBlack, Gotham Black"> </text><text transform="translate(351.1 542.52)" style="font-size:48.29999923706055px;fill:#fff;font-family:GothamBlack, Gotham Black;letter-spacing:0.07999522965386163em">N<tspan x="41.78" y="0" style="letter-spacing:-0.00001010934280978916em">O</tspan></text><text transform="translate(436.88 542.52)" style="font-size:69px;fill:#fff;font-family:GothamBlack, Gotham Black"> </text><text transform="translate(455.99 542.52)" style="font-size:48.29999923706055px;fill:#fff;font-family:GothamBlack, Gotham Black"><tspan style="letter-spacing:0.08000533899667142em">PORP</tspan><tspan x="155.33" y="0" style="letter-spacing:0.07901462340131209em">OIS</tspan><tspan x="254.2" y="0">E</tspan></text><text transform="translate(38 610.28)" style="font-size:48.29999923706055px;fill:#fff;font-family:GothamBlack, Gotham Black"><tspan style="letter-spacing:0.015002264729727115em">Y</tspan><tspan x="35.65" y="0" style="letter-spacing:0.07999522965386163em">O</tspan><tspan x="79.65" y="0">U</tspan></text><text transform="translate(158.12 610.28)" style="font-size:69px;fill:#fff;font-family:GothamBlack, Gotham Black"> </text><text transform="translate(177.23 610.28)" style="font-size:48.29999923706055px;fill:#fff;font-family:GothamBlack, Gotham Black;letter-spacing:0.07999522965386163em">H<tspan x="40.62" y="0" style="letter-spacing:-0.01999628007776296em">A</tspan><tspan x="78.05" y="0" style="letter-spacing:0.0790045140585023em">V</tspan><tspan x="118.58" y="0" style="letter-spacing:-0.00001010934280978916em">E</tspan></text><text transform="translate(331.99 610.28)" style="font-size:69px;fill:#fff;font-family:GothamBlack, Gotham Black"> </text><text transform="translate(351.1 610.28)" style="font-size:48.29999923706055px;fill:#fff;font-family:GothamBlack, Gotham Black;letter-spacing:0.07999522965386163em">N<tspan x="41.78" y="0" style="letter-spacing:-0.00001010934280978916em">O</tspan></text><text transform="translate(436.88 610.28)" style="font-size:69px;fill:#fff;font-family:GothamBlack, Gotham Black"> </text><text transform="translate(455.99 610.28)" style="font-size:48.29999923706055px;fill:#fff;font-family:GothamBlack, Gotham Black"><tspan style="letter-spacing:0.08000533899667142em">PORP</tspan><tspan x="155.33" y="0" style="letter-spacing:0.07901462340131209em">OIS</tspan><tspan x="254.2" y="0">E</tspan></text><text transform="translate(38 678.04)" style="font-size:48.29999923706055px;fill:#fff;font-family:GothamBlack, Gotham Black"><tspan style="letter-spacing:0.015002264729727115em">Y</tspan><tspan x="35.65" y="0" style="letter-spacing:0.07999522965386163em">O</tspan><tspan x="79.65" y="0">U</tspan></text><text transform="translate(158.12 678.04)" style="font-size:69px;fill:#fff;font-family:GothamBlack, Gotham Black"> </text><text transform="translate(177.23 678.04)" style="font-size:48.29999923706055px;fill:#fff;font-family:GothamBlack, Gotham Black;letter-spacing:0.07999522965386163em">H<tspan x="40.62" y="0" style="letter-spacing:-0.01999628007776296em">A</tspan><tspan x="78.05" y="0" style="letter-spacing:0.0790045140585023em">V</tspan><tspan x="118.58" y="0" style="letter-spacing:-0.00001010934280978916em">E</tspan></text><text transform="translate(331.99 678.04)" style="font-size:69px;fill:#fff;font-family:GothamBlack, Gotham Black"> </text><text transform="translate(351.1 678.04)" style="font-size:48.29999923706055px;fill:#fff;font-family:GothamBlack, Gotham Black;letter-spacing:0.07999522965386163em">N<tspan x="41.78" y="0" style="letter-spacing:-0.00001010934280978916em">O</tspan></text><text transform="translate(436.88 678.04)" style="font-size:69px;fill:#fff;font-family:GothamBlack, Gotham Black"> </text><text transform="translate(455.99 678.04)" style="font-size:48.29999923706055px;fill:#fff;font-family:GothamBlack, Gotham Black"><tspan style="letter-spacing:0.08000533899667142em">PORP</tspan><tspan x="155.33" y="0" style="letter-spacing:0.07901462340131209em">OIS</tspan><tspan x="254.2" y="0">E</tspan></text><text transform="translate(38 745.8)" style="font-size:48.29999923706055px;fill:#fff;font-family:GothamBlack, Gotham Black"><tspan style="letter-spacing:0.015002264729727115em">Y</tspan><tspan x="35.65" y="0" style="letter-spacing:0.07999522965386163em">O</tspan><tspan x="79.65" y="0">U</tspan></text><text transform="translate(158.12 745.79)" style="font-size:69px;fill:#fff;font-family:GothamBlack, Gotham Black"> </text><text transform="translate(177.23 745.79)" style="font-size:48.29999923706055px;fill:#fff;font-family:GothamBlack, Gotham Black;letter-spacing:0.07999522965386163em">H<tspan x="40.62" y="0" style="letter-spacing:-0.01999628007776296em">A</tspan><tspan x="78.05" y="0" style="letter-spacing:0.0790045140585023em">V</tspan><tspan x="118.58" y="0" style="letter-spacing:-0.00001010934280978916em">E</tspan></text><text transform="translate(331.99 745.79)" style="font-size:69px;fill:#fff;font-family:GothamBlack, Gotham Black"> </text><text transform="translate(351.1 745.79)" style="font-size:48.29999923706055px;fill:#fff;font-family:GothamBlack, Gotham Black;letter-spacing:0.07999522965386163em">N<tspan x="41.78" y="0" style="letter-spacing:-0.00001010934280978916em">O</tspan></text><text transform="translate(436.88 745.79)" style="font-size:69px;fill:#fff;font-family:GothamBlack, Gotham Black"> </text><text transform="translate(455.99 745.79)" style="font-size:48.29999923706055px;fill:#fff;font-family:GothamBlack, Gotham Black"><tspan style="letter-spacing:0.08000533899667142em">PORP</tspan><tspan x="155.33" y="0" style="letter-spacing:0.07901462340131209em">OIS</tspan><tspan x="254.2" y="0">E</tspan></text></g><g style="clip-path:url(#clip-path)"><g style="clip-path:url(#clip-path)"><g style="opacity:0.4000000059604645;isolation:isolate"><g style="clip-path:url(#clip-path-23)"><g style="clip-path:url(#clip-path-24)"><path d="M365.05,399.46c-2.1-25.9,7.88-49.36,25-68.44a76.6,76.6,0,0,1,38.81-23.18c29.39-7.24,64.33,1.25,81.35,27.74,14.71,22.9,16.85,48.89,11,75-20.61,91.15-181.39,180.29-272.53,2.76,0,0-41.21,10.3-65.78-13.47,0,0,30.12-34.08,65-23.78,0,0,32.49-53.1,72.92-55.48,0,0,11.91,41.59-37.25,68.16,0,0,11.34,13.62,40.66,14.95,0,0,20.31-27.89,41.71-27.89" style="fill:#231f20"/></g></g></g><path d="M365.05,369.23c-4-49.09,33.7-92.69,83.38-91.65,52.14,1.09,83.87,53.59,72.75,102.74-20.61,91.14-181.39,180.29-272.53,2.76,0,0-41.21,10.3-65.78-13.47,0,0,30.12-34.08,65-23.78,0,0,32.49-53.1,72.92-55.48,0,0,11.91,41.59-37.25,68.16,0,0,11.34,13.62,40.66,14.95,0,0,20.31-27.88,41.71-27.88" style="fill:#fff"/><path d="M365.05,369.23c-4-49.09,33.7-92.69,83.38-91.65,52.14,1.09,83.87,53.59,72.75,102.74-20.61,91.14-181.39,180.29-272.53,2.76,0,0-41.21,10.3-65.78-13.47,0,0,30.12-34.08,65-23.78,0,0,32.49-53.1,72.92-55.48,0,0,11.91,41.59-37.25,68.16,0,0,11.34,13.62,40.66,14.95,0,0,20.31-27.88,41.71-27.88" style="fill:none;stroke:#231f20;stroke-linecap:round;stroke-miterlimit:10;stroke-width:6px"/><path d="M416.81,345.4a6.76,6.76,0,1,1-6.75-6.75,6.75,6.75,0,0,1,6.75,6.75" style="fill:#231f20"/><path d="M500,347.2a6.76,6.76,0,1,1-6.76-6.75A6.76,6.76,0,0,1,500,347.2" style="fill:#231f20"/><path d="M413.22,370.3S433.38,378.72,452,362c0,0,19.54,16.27,37.68,10.14" style="fill:none;stroke:#231f20;stroke-linecap:round;stroke-miterlimit:10;stroke-width:6px"/><path d="M437.4,387.91s11.43,11.27,27.76.51" style="fill:none;stroke:#231f20;stroke-linecap:round;stroke-miterlimit:10;stroke-width:6px"/><path d="M347.55,430.17s-59.38,36.54-48.29,94.4c0,0,56.27-16.64,65-84" style="fill:#fff"/><path d="M347.55,430.17s-59.38,36.54-48.29,94.4c0,0,56.27-16.64,65-84" style="fill:none;stroke:#231f20;stroke-linecap:round;stroke-miterlimit:10;stroke-width:6px"/><line x1="317.95" y1="387.44" x2="324.19" y2="373.46" style="fill:none;stroke:#231f20;stroke-linecap:round;stroke-miterlimit:10;stroke-width:6px"/></g></g></g></g></g><text></text></svg>