<?xml version="1.0" encoding="utf-8"?>
<!-- Generator: Adobe Illustrator 16.0.0, SVG Export Plug-In . SVG Version: 6.00 Build 0)  -->
<!DOCTYPE svg PUBLIC "-//W3C//DTD SVG 1.1//EN" "http://www.w3.org/Graphics/SVG/1.1/DTD/svg11.dtd">
<svg version="1.1" id="Layer_1" xmlns="http://www.w3.org/2000/svg" xmlns:xlink="http://www.w3.org/1999/xlink" x="0px" y="0px"
	 width="960px" height="1000px" viewBox="0 0 960 1000" enable-background="new 0 0 960 1000" xml:space="preserve">
<g id="g_raptor" transform="scale(2.8), translate(-20)">
	<line fill="none" stroke="#525252" stroke-width="5" stroke-miterlimit="10" x1="129.208" y1="93.05" x2="145.632" y2="87.349"/>
	<polyline fill="none" stroke="#525252" stroke-width="5" stroke-miterlimit="10" points="150.29,92.667 157.366,83.2 
		145.434,76.55 149.013,65.201 168.902,66.195 168.902,58.338 141.058,50.483 135.887,65.797 102.674,78.526 64.063,60.824 	"/>
	<polyline fill="none" stroke="#525252" stroke-width="5" stroke-miterlimit="10" points="135.489,79.833 131.475,102.654 
		118.385,110.944 128.13,118.712 	"/>
	
		<line fill="none" stroke="#525252" stroke-width="5" stroke-miterlimit="10" x1="118.385" y1="107.364" x2="129.523" y2="116.711"/>
	<line fill="none" stroke="#525252" stroke-width="5" stroke-miterlimit="10" x1="121.767" y1="104.779" x2="132.307" y2="115.12"/>
	<polyline fill="none" stroke="#525252" stroke-width="5" stroke-miterlimit="10" points="121.767,81.903 123.158,98.429 
		110.231,108.358 118.385,116.711 	"/>
	<line fill="none" stroke="#525252" stroke-width="5" stroke-miterlimit="10" x1="142.356" y1="93.782" x2="146.37" y2="84.424"/>
	<line fill="none" stroke="#525252" stroke-width="5" stroke-miterlimit="10" x1="143.898" y1="94.816" x2="148.129" y2="85.561"/>
	<line fill="none" stroke="#525252" stroke-miterlimit="10" x1="152.07" y1="94.045" x2="157.649" y2="86.025"/>
	<line fill="none" stroke="#525252" stroke-width="5" stroke-miterlimit="10" x1="145.268" y1="59.632" x2="172.355" y2="64.007"/>
	<circle fill="none" stroke="#525252" stroke-width="5" stroke-miterlimit="10" cx="151.771" cy="59.631" r="2.685"/>
	<line fill="none" stroke="#525252" stroke-width="5" stroke-miterlimit="10" x1="140.048" y1="81.903" x2="149.086" y2="87.781"/>
	<polyline fill="none" stroke="#525252" stroke-width="5" stroke-miterlimit="10" points="102.674,78.526 107.132,93.05 
		118.385,91.074 	"/>
	<line fill="none" stroke="#525252" stroke-width="5" stroke-miterlimit="10" x1="107.132" y1="93.05" x2="64.063" y2="60.824"/>
</g>
</svg>
